<svg xmlns="http://www.w3.org/2000/svg" viewBox="0 0 1600 900" role="img" aria-label="Nexus Prime corporate industrial sector">
  <defs>
    <linearGradient id="sky" x1="0" x2="1" y1="0" y2="1">
      <stop offset="0" stop-color="#07111f"/>
      <stop offset="0.52" stop-color="#162141"/>
      <stop offset="1" stop-color="#050812"/>
    </linearGradient>
    <linearGradient id="neon" x1="0" x2="1">
      <stop offset="0" stop-color="#22d3ee"/>
      <stop offset="1" stop-color="#a855f7"/>
    </linearGradient>
    <radialGradient id="core" cx="50%" cy="48%" r="48%">
      <stop offset="0" stop-color="#67e8f9" stop-opacity=".34"/>
      <stop offset=".48" stop-color="#7c3aed" stop-opacity=".16"/>
      <stop offset="1" stop-color="#020617" stop-opacity="0"/>
    </radialGradient>
    <filter id="blur" x="-20%" y="-20%" width="140%" height="140%">
      <feGaussianBlur stdDeviation="18"/>
    </filter>
  </defs>
  <rect width="1600" height="900" fill="url(#sky)"/>
  <rect width="1600" height="900" fill="url(#core)"/>
  <g opacity=".2">
    <path d="M0 605H1600M0 690H1600M0 775H1600M118 900 690 210M1482 900 910 210" stroke="#67e8f9" stroke-width="2"/>
  </g>
  <g opacity=".9">
    <path d="M0 730 320 555 620 604 950 482 1600 660V900H0Z" fill="#070b16"/>
    <path d="M0 755 350 610 650 640 980 535 1600 710" fill="none" stroke="url(#neon)" stroke-width="3" opacity=".75"/>
  </g>
  <g>
    <rect x="110" y="350" width="145" height="340" rx="8" fill="#0b1224"/>
    <rect x="278" y="250" width="210" height="460" rx="10" fill="#101831"/>
    <rect x="1120" y="286" width="170" height="430" rx="10" fill="#0d1429"/>
    <rect x="1320" y="390" width="140" height="300" rx="8" fill="#10172c"/>
    <path d="M530 700V405l118-70 122 70v295Z" fill="#0b1328"/>
    <path d="M830 700V360l126-88 132 88v340Z" fill="#0a1123"/>
  </g>
  <g stroke="url(#neon)" stroke-width="5" opacity=".82">
    <path d="M155 422H245M310 315H458M1148 355H1260M1352 450H1432"/>
    <path d="M604 432 650 405 698 432M906 398 958 360 1010 398"/>
  </g>
  <g fill="#67e8f9" opacity=".65" filter="url(#blur)">
    <circle cx="683" cy="440" r="44"/>
    <circle cx="960" cy="396" r="54"/>
    <circle cx="1320" cy="230" r="34"/>
  </g>
  <g opacity=".55" stroke="#c084fc" stroke-width="2">
    <path d="M235 510h980M180 590h1240M400 310h760" stroke-dasharray="12 16"/>
  </g>
  <g fill="#e0f2fe" opacity=".8">
    <circle cx="1410" cy="160" r="2"/>
    <circle cx="1270" cy="118" r="2"/>
    <circle cx="1080" cy="190" r="1.6"/>
    <circle cx="520" cy="140" r="2"/>
    <circle cx="320" cy="185" r="1.6"/>
  </g>
</svg>
